STARTFONT 2.1
FONT -gumix-asciicker-medium-r-normal--20-120-72-72-c-120-iso10646-1
SIZE 20 72 72
FONTBOUNDINGBOX 20 20 0 0
STARTPROPERTIES 23
ADD_STYLE_NAME ""
AVERAGE_WIDTH 120
CHARSET_ENCODING "1"
CHARSET_REGISTRY "ISO10646"
COPYRIGHT "gumix"
FAMILY_NAME "asciicker"
FOUNDRY "gumix"
MIN_SPACE 20
NOTICE "Licensed"
PIXEL_SIZE 20
POINT_SIZE 120
QUAD_WIDTH 20
RESOLUTION_X 72
RESOLUTION_Y 72
SETWIDTH_NAME "Normal"
SLANT "R"
SPACING "M"
WEIGHT 10
WEIGHT_NAME "Bold"
X_HEIGHT 10
DEFAULT_CHAR 33
FONT_DESCENT 0
FONT_ASCENT 20
ENDPROPERTIES
CHARS 256
STARTCHAR U+0000
ENCODING 0
SWIDTH 500 0
DWIDTH 20 0
BBX 20 20 0 0
BITMAP
000000
000000
000000
000000
000000
000000
000000
000000
000000
000000
000000
000000
000000
000000
000000
000000
000000
000000
000000
000000
ENDCHAR
STARTCHAR U+263A
ENCODING 9786
SWIDTH 500 0
DWIDTH 20 0
BBX 20 20 0 0
BITMAP
000000
0FFF00
1FFF80
3C03C0
3801C0
3000C0
339CC0
339CC0
339CC0
3000C0
3000C0
33FCC0
31F8C0
30F0C0
3801C0
3C03C0
1FFF80
0FFF00
000000
000000
ENDCHAR
STARTCHAR U+263B
ENCODING 9787
SWIDTH 500 0
DWIDTH 20 0
BBX 20 20 0 0
BITMAP
000000
0FFF00
1FFF80
3FFFC0
3FFFC0
3FFFC0
3C63C0
3C63C0
3C63C0
3FFFC0
3FFFC0
3C03C0
3E07C0
3F0FC0
3FFFC0
3FFFC0
1FFF80
0FFF00
000000
000000
ENDCHAR
STARTCHAR U+2665
ENCODING 9829
SWIDTH 500 0
DWIDTH 20 0
BBX 20 20 0 0
BITMAP
000000
000000
0F0F00
1F9F80
3FFFC0
3FFFC0
3FFFC0
3FFFC0
3FFFC0
3FFFC0
3FFFC0
1FFF80
1FFF80
0FFF00
07FE00
03FC00
01F800
00F000
000000
000000
ENDCHAR
STARTCHAR U+2666
ENCODING 9830
SWIDTH 500 0
DWIDTH 20 0
BBX 20 20 0 0
BITMAP
000000
006000
00F000
01F800
03FC00
07FE00
0FFF00
1FFF80
3FFFC0
7FFFE0
7FFFE0
3FFFC0
1FFF80
0FFF00
07FE00
03FC00
01F800
00F000
006000
000000
ENDCHAR
STARTCHAR U+2663
ENCODING 9827
SWIDTH 500 0
DWIDTH 20 0
BBX 20 20 0 0
BITMAP
000000
007000
00F800
01FC00
01FC00
01FC00
00F800
0E7380
1F77C0
3FFFE0
3FFFE0
3FFFE0
1F77C0
0E7380
007000
00F800
03FE00
03FE00
000000
000000
ENDCHAR
STARTCHAR U+2660
ENCODING 9824
SWIDTH 500 0
DWIDTH 20 0
BBX 20 20 0 0
BITMAP
000000
006000
00F000
01F800
03FC00
07FE00
0FFF00
1FFF80
1FFF80
3FFFC0
3FFFC0
3FFFC0
1F6F80
0E6700
006000
00F000
03FC00
03FC00
000000
000000
ENDCHAR
STARTCHAR U+2022
ENCODING 8226
SWIDTH 500 0
DWIDTH 20 0
BBX 20 20 0 0
BITMAP
000000
000000
000000
000000
000000
00F000
01F800
03FC00
07FE00
07FE00
07FE00
07FE00
03FC00
01F800
00F000
000000
000000
000000
000000
000000
ENDCHAR
STARTCHAR U+25D8
ENCODING 9688
SWIDTH 500 0
DWIDTH 20 0
BBX 20 20 0 0
BITMAP
FFFFF0
FFFFF0
FFFFF0
FFFFF0
FFFFF0
FF0FF0
FE07F0
FC03F0
F801F0
F801F0
F801F0
F801F0
FC03F0
FE07F0
FF0FF0
FFFFF0
FFFFF0
FFFFF0
FFFFF0
FFFFF0
ENDCHAR
STARTCHAR U+25CB
ENCODING 9675
SWIDTH 500 0
DWIDTH 20 0
BBX 20 20 0 0
BITMAP
000000
000000
000000
03FC00
07FE00
0FFF00
0FFF00
0E0700
0C0300
0C0300
0C0300
0C0300
0E0700
0FFF00
0FFF00
07FE00
03FC00
000000
000000
000000
ENDCHAR
STARTCHAR U+25D9
ENCODING 9689
SWIDTH 500 0
DWIDTH 20 0
BBX 20 20 0 0
BITMAP
FFFFF0
FFFFF0
FFFFF0
FC03F0
F801F0
F000F0
F000F0
F1F8F0
F3FCF0
F3FCF0
F3FCF0
F3FCF0
F1F8F0
F000F0
F000F0
F801F0
FC03F0
FFFFF0
FFFFF0
FFFFF0
ENDCHAR
STARTCHAR U+2642
ENCODING 9794
SWIDTH 500 0
DWIDTH 20 0
BBX 20 20 0 0
BITMAP
000000
00FF00
003F00
001F00
007B00
00F100
01E100
03C000
07F800
0FFC00
1E1E00
1E1E00
1E1E00
1E1E00
1E1E00
1E1E00
0FFC00
07F800
000000
000000
ENDCHAR
STARTCHAR U+2640
ENCODING 9792
SWIDTH 500 0
DWIDTH 20 0
BBX 20 20 0 0
BITMAP
000000
03FC00
07FE00
0F0F00
0F0F00
0F0F00
0F0F00
0F0F00
0F0F00
07FE00
03FC00
00F000
00F000
0FFF00
0FFF00
00F000
00F000
00F000
000000
000000
ENDCHAR
STARTCHAR U+266A
ENCODING 9834
SWIDTH 500 0
DWIDTH 20 0
BBX 20 20 0 0
BITMAP
000000
000000
00FF00
00FFC0
00F0E0
00F000
00FF00
00FFC0
00F0E0
00F000
00F000
0FF000
1FF000
3FF000
3FF000
1FE000
0FC000
000000
000000
000000
ENDCHAR
STARTCHAR U+266B
ENCODING 9835
SWIDTH 500 0
DWIDTH 20 0
BBX 20 20 0 0
BITMAP
000000
000000
0FFFC0
0FFFC0
0F03C0
0F03C0
0FFFC0
0FFFC0
0F03C0
0F03C0
0F03C0
0F0FC0
3F1FC0
7F3FC0
FF3FC0
FF1F80
7E0F00
3C0000
000000
000000
ENDCHAR
STARTCHAR U+263C
ENCODING 9788
SWIDTH 500 0
DWIDTH 20 0
BBX 20 20 0 0
BITMAP
000000
000000
00F000
1CF380
1EF780
0FFF00
07FE00
030C00
3E07C0
3E07C0
3E07C0
030C00
07FE00
0FFF00
1EF780
1CF380
00F000
000000
000000
000000
ENDCHAR
STARTCHAR U+25BA
ENCODING 9658
SWIDTH 500 0
DWIDTH 20 0
BBX 20 20 0 0
BITMAP
000000
000000
300000
3C0000
3F0000
3FC000
3FF000
3FFC00
3FFF00
3FFFC0
3FFFC0
3FFF00
3FFC00
3FF000
3FC000
3F0000
3C0000
300000
000000
000000
ENDCHAR
STARTCHAR U+25C4
ENCODING 9668
SWIDTH 500 0
DWIDTH 20 0
BBX 20 20 0 0
BITMAP
000000
000000
0000C0
0003C0
000FC0
003FC0
00FFC0
03FFC0
0FFFC0
3FFFC0
3FFFC0
0FFFC0
03FFC0
00FFC0
003FC0
000FC0
0003C0
0001C0
000000
000000
ENDCHAR
STARTCHAR U+2195
ENCODING 8597
SWIDTH 500 0
DWIDTH 20 0
BBX 20 20 0 0
BITMAP
000000
006000
00F000
01F800
03FC00
07FE00
0FFF00
00F000
00F000
00F000
00F000
00F000
00F000
0FFF00
07FE00
03FC00
01F800
00F000
006000
000000
ENDCHAR
STARTCHAR U+203C
ENCODING 8252
SWIDTH 500 0
DWIDTH 20 0
BBX 20 20 0 0
BITMAP
000000
000000
0F0F00
0F0F00
0F0F00
0F0F00
0F0F00
0F0F00
0F0F00
0F0F00
000000
000000
0F0F00
0F0F00
0F0F00
0F0F00
000000
000000
000000
000000
ENDCHAR
STARTCHAR U+00B6
ENCODING 182
SWIDTH 500 0
DWIDTH 20 0
BBX 20 20 0 0
BITMAP
000000
000000
0FFFC0
1FFFC0
3CF3C0
3CF3C0
3CF3C0
3CF3C0
3CF3C0
3CF3C0
1FF3C0
0FF3C0
00F3C0
00F3C0
00F3C0
00F3C0
000000
000000
000000
000000
ENDCHAR
STARTCHAR U+00A7
ENCODING 167
SWIDTH 500 0
DWIDTH 20 0
BBX 20 20 0 0
BITMAP
000000
000000
07FF00
0FFF80
0F01C0
0F00C0
07F840
03FE00
0F0F00
0E0700
0E0700
0F0F00
07FE00
21FC00
300E00
3C0F00
1FFF00
07FE00
000000
000000
ENDCHAR
STARTCHAR U+25AC
ENCODING 9644
SWIDTH 500 0
DWIDTH 20 0
BBX 20 20 0 0
BITMAP
000000
000000
000000
000000
000000
000000
000000
000000
000000
000000
000000
000000
1FFF80
1FFF80
1FFF80
1FFF80
1FFF80
1FFF80
000000
000000
ENDCHAR
STARTCHAR U+21A8
ENCODING 8616
SWIDTH 500 0
DWIDTH 20 0
BBX 20 20 0 0
BITMAP
000000
006000
00F000
01F800
03FC00
07FE00
0FFF00
00F000
00F000
00F000
00F000
0FFF00
07FE00
03FC00
01F800
00F000
0FFF00
0FFF00
000000
000000
ENDCHAR
STARTCHAR U+2191
ENCODING 8593
SWIDTH 500 0
DWIDTH 20 0
BBX 20 20 0 0
BITMAP
000000
006000
00F000
01F800
03FC00
07FE00
0FFF00
1FFF80
1FFF80
00F000
00F000
00F000
00F000
00F000
00F000
00F000
00F000
00F000
000000
000000
ENDCHAR
STARTCHAR U+2193
ENCODING 8595
SWIDTH 500 0
DWIDTH 20 0
BBX 20 20 0 0
BITMAP
000000
000000
00F000
00F000
00F000
00F000
00F000
00F000
00F000
00F000
1FFF80
1FFF80
0FFF00
07FE00
03FC00
01F800
00F000
006000
000000
000000
ENDCHAR
STARTCHAR U+2192
ENCODING 8594
SWIDTH 500 0
DWIDTH 20 0
BBX 20 20 0 0
BITMAP
000000
000000
000000
001800
001C00
001E00
001F00
001F80
3FFFC0
3FFFE0
3FFFE0
3FFFC0
001F80
001F00
001E00
001C00
001800
000000
000000
000000
ENDCHAR
STARTCHAR U+2190
ENCODING 8592
SWIDTH 500 0
DWIDTH 20 0
BBX 20 20 0 0
BITMAP
000000
000000
000000
018000
038000
078000
0F8000
1F8000
3FFFC0
7FFFC0
7FFFC0
3FFFC0
1F8000
0F8000
078000
038000
018000
000000
000000
000000
ENDCHAR
STARTCHAR U+221F
ENCODING 8735
SWIDTH 500 0
DWIDTH 20 0
BBX 20 20 0 0
BITMAP
000000
000000
000000
000000
000000
000000
0F0000
0F0000
0F0000
0F0000
0F0000
0F0000
0FFF00
0FFF00
000000
000000
000000
000000
000000
000000
ENDCHAR
STARTCHAR U+2194
ENCODING 8596
SWIDTH 500 0
DWIDTH 20 0
BBX 20 20 0 0
BITMAP
000000
000000
000000
000000
000000
030C00
070E00
0F0F00
1F0F80
3FFFC0
7FFFE0
3FFFC0
1F0F80
0F0F00
070E00
030C00
000000
000000
000000
000000
ENDCHAR
STARTCHAR U+25B2
ENCODING 9650
SWIDTH 500 0
DWIDTH 20 0
BBX 20 20 0 0
BITMAP
000000
000000
006000
006000
00F000
00F000
01F800
01F800
03FC00
03FC00
07FE00
07FE00
0FFF00
0FFF00
1FFF80
1FFF80
3FFFC0
3FFFC0
000000
000000
ENDCHAR
STARTCHAR U+25BC
ENCODING 9660
SWIDTH 500 0
DWIDTH 20 0
BBX 20 20 0 0
BITMAP
000000
000000
3FFFC0
3FFFC0
1FFF80
1FFF80
0FFF00
0FFF00
07FE00
07FE00
03FC00
03FC00
01F800
01F800
00F000
00F000
006000
006000
000000
000000
ENDCHAR
STARTCHAR U+0020
ENCODING 32
SWIDTH 500 0
DWIDTH 20 0
BBX 20 20 0 0
BITMAP
000000
000000
000000
000000
000000
000000
000000
000000
000000
000000
000000
000000
000000
000000
000000
000000
000000
000000
000000
000000
ENDCHAR
STARTCHAR U+0021
ENCODING 33
SWIDTH 500 0
DWIDTH 20 0
BBX 20 20 0 0
BITMAP
000000
00F000
01F800
03FC00
03FC00
03FC00
01F800
01F800
00F000
00F000
000000
000000
00F000
00F000
00F000
00F000
000000
000000
000000
000000
ENDCHAR
STARTCHAR U+0022
ENCODING 34
SWIDTH 500 0
DWIDTH 20 0
BBX 20 20 0 0
BITMAP
000000
000000
0F0F00
0F0F00
0F0F00
0F0F00
070E00
030C00
000000
000000
000000
000000
000000
000000
000000
000000
000000
000000
000000
000000
ENDCHAR
STARTCHAR U+0023
ENCODING 35
SWIDTH 500 0
DWIDTH 20 0
BBX 20 20 0 0
BITMAP
000000
000000
0F1E00
0F1E00
0F1E00
0F1E00
3FFF80
3FFF80
0F1E00
0F1E00
0F1E00
0F1E00
3FFF80
3FFF80
0F1E00
0F1E00
0F1E00
0F1E00
000000
000000
ENDCHAR
STARTCHAR U+0024
ENCODING 36
SWIDTH 500 0
DWIDTH 20 0
BBX 20 20 0 0
BITMAP
00F000
00F000
00F000
00F000
03FF00
07FF00
0F0000
0F0000
07FC00
03FE00
000F00
000F00
0FFE00
0FFC00
00F000
00F000
00F000
00F000
000000
000000
ENDCHAR
STARTCHAR U+0025
ENCODING 37
SWIDTH 500 0
DWIDTH 20 0
BBX 20 20 0 0
BITMAP
000000
000000
000000
1E0380
1E0780
1E0F80
1E1F00
003E00
007C00
00F800
01F000
03E000
07C000
0F8780
1F0780
1E0780
1C0780
000000
000000
000000
ENDCHAR
STARTCHAR U+0026
ENCODING 38
SWIDTH 500 0
DWIDTH 20 0
BBX 20 20 0 0
BITMAP
000000
000000
03F000
07F800
0F3C00
0F3C00
0F3C00
0F3C00
03F0C0
03F1C0
0F3B80
0F1F80
0F0F00
0F0F00
07FF80
03FBC0
000000
000000
000000
000000
ENDCHAR
STARTCHAR U+0027
ENCODING 39
SWIDTH 500 0
DWIDTH 20 0
BBX 20 20 0 0
BITMAP
000000
000000
00F000
00F000
00F000
00F000
01E000
03C000
000000
000000
000000
000000
000000
000000
000000
000000
000000
000000
000000
000000
ENDCHAR
STARTCHAR U+0028
ENCODING 40
SWIDTH 500 0
DWIDTH 20 0
BBX 20 20 0 0
BITMAP
000000
000000
003C00
007800
00F000
01E000
03C000
03C000
03C000
03C000
03C000
03C000
01E000
00F000
007800
003C00
000000
000000
000000
000000
ENDCHAR
STARTCHAR U+0029
ENCODING 41
SWIDTH 500 0
DWIDTH 20 0
BBX 20 20 0 0
BITMAP
000000
000000
03C000
01E000
00F000
007800
003C00
003C00
003C00
003C00
003C00
003C00
007800
00F000
01E000
03C000
000000
000000
000000
000000
ENDCHAR
STARTCHAR U+002A
ENCODING 42
SWIDTH 500 0
DWIDTH 20 0
BBX 20 20 0 0
BITMAP
000000
006000
006000
006000
0C6300
066600
03FC00
01F800
3FFFC0
3FFFC0
01F800
03FC00
066600
0C6300
006000
006000
006000
000000
000000
000000
ENDCHAR
STARTCHAR U+002B
ENCODING 43
SWIDTH 500 0
DWIDTH 20 0
BBX 20 20 0 0
BITMAP
000000
000000
000000
000000
000000
00F000
00F000
00F000
00F000
0FFF00
0FFF00
0FFF00
00F000
00F000
00F000
00F000
000000
000000
000000
000000
ENDCHAR
STARTCHAR U+002C
ENCODING 44
SWIDTH 500 0
DWIDTH 20 0
BBX 20 20 0 0
BITMAP
000000
000000
000000
000000
000000
000000
000000
000000
000000
000000
000000
00F000
00F000
00F000
00F000
01E000
03C000
000000
000000
000000
ENDCHAR
STARTCHAR U+002D
ENCODING 45
SWIDTH 500 0
DWIDTH 20 0
BBX 20 20 0 0
BITMAP
000000
000000
000000
000000
000000
000000
000000
000000
000000
0FFF00
0FFF00
000000
000000
000000
000000
000000
000000
000000
000000
000000
ENDCHAR
STARTCHAR U+002E
ENCODING 46
SWIDTH 500 0
DWIDTH 20 0
BBX 20 20 0 0
BITMAP
000000
000000
000000
000000
000000
000000
000000
000000
000000
000000
000000
000000
00F000
00F000
00F000
00F000
000000
000000
000000
000000
ENDCHAR
STARTCHAR U+002F
ENCODING 47
SWIDTH 500 0
DWIDTH 20 0
BBX 20 20 0 0
BITMAP
000000
000000
0001C0
0003C0
0007C0
000F80
001F00
003E00
007C00
00F800
01F000
03E000
07C000
0F8000
1F0000
3E0000
3C0000
380000
000000
000000
ENDCHAR
STARTCHAR U+0030
ENCODING 48
SWIDTH 500 0
DWIDTH 20 0
BBX 20 20 0 0
BITMAP
000000
000000
03FC00
07FE00
0F0F00
0F0F00
0F1F00
0F3F00
0F6F00
0F6F00
0FCF00
0F8F00
0F0F00
0F0F00
07FE00
03FC00
000000
000000
000000
000000
ENDCHAR
STARTCHAR U+0031
ENCODING 49
SWIDTH 500 0
DWIDTH 20 0
BBX 20 20 0 0
BITMAP
000000
000000
00F000
01F000
0FF000
0FF000
00F000
00F000
00F000
00F000
00F000
00F000
00F000
00F000
0FFF00
0FFF00
000000
000000
000000
000000
ENDCHAR
STARTCHAR U+0032
ENCODING 50
SWIDTH 500 0
DWIDTH 20 0
BBX 20 20 0 0
BITMAP
000000
000000
03FC00
07FE00
0F0F00
0F0F00
000F00
001E00
003C00
007800
00F000
01E000
03C000
078700
0FFF00
0FFF00
000000
000000
000000
000000
ENDCHAR
STARTCHAR U+0033
ENCODING 51
SWIDTH 500 0
DWIDTH 20 0
BBX 20 20 0 0
BITMAP
000000
000000
03FC00
07FE00
0F0F00
0E0F00
000F00
000F00
00FC00
00FC00
000F00
000F00
0E0F00
0F0F00
07FE00
03FC00
000000
000000
000000
000000
ENDCHAR
STARTCHAR U+0034
ENCODING 52
SWIDTH 500 0
DWIDTH 20 0
BBX 20 20 0 0
BITMAP
000000
000000
003F00
007F00
00FF00
01FF00
03CF00
078F00
0F0F00
0F0F00
0FFFC0
0FFFC0
000F00
000F00
000F00
000F00
000000
000000
000000
000000
ENDCHAR
STARTCHAR U+0035
ENCODING 53
SWIDTH 500 0
DWIDTH 20 0
BBX 20 20 0 0
BITMAP
000000
000000
0FFF00
0FFF00
0F0000
0F0000
0FFC00
0FFE00
000F00
000700
000700
000700
0E0700
0F0F00
07FE00
03FC00
000000
000000
000000
000000
ENDCHAR
STARTCHAR U+0036
ENCODING 54
SWIDTH 500 0
DWIDTH 20 0
BBX 20 20 0 0
BITMAP
000000
000000
03FC00
07FE00
0F0F00
0F0700
0F0000
0F0000
0FFC00
0FFE00
0F0F00
0F0F00
0F0F00
0F0F00
07FE00
03FC00
000000
000000
000000
000000
ENDCHAR
STARTCHAR U+0037
ENCODING 55
SWIDTH 500 0
DWIDTH 20 0
BBX 20 20 0 0
BITMAP
000000
000000
0FFF00
0FFF00
0F0F00
0F0F00
001E00
003C00
007800
00F000
00F000
00F000
00F000
00F000
00F000
00F000
000000
000000
000000
000000
ENDCHAR
STARTCHAR U+0038
ENCODING 56
SWIDTH 500 0
DWIDTH 20 0
BBX 20 20 0 0
BITMAP
000000
000000
03FC00
07FE00
0F0F00
0F0F00
0F0F00
0F0F00
03FC00
03FC00
0F0F00
0F0F00
0F0F00
0F0F00
07FE00
03FC00
000000
000000
000000
000000
ENDCHAR
STARTCHAR U+0039
ENCODING 57
SWIDTH 500 0
DWIDTH 20 0
BBX 20 20 0 0
BITMAP
000000
000000
03FC00
07FE00
0F0F00
0F0F00
0F0F00
0F0F00
07FF00
03FF00
000F00
000F00
0E0F00
0F0F00
07FE00
03FC00
000000
000000
000000
000000
ENDCHAR
STARTCHAR U+003A
ENCODING 58
SWIDTH 500 0
DWIDTH 20 0
BBX 20 20 0 0
BITMAP
000000
000000
000000
000000
000000
00F000
00F000
00F000
00F000
000000
000000
00F000
00F000
00F000
00F000
000000
000000
000000
000000
000000
ENDCHAR
STARTCHAR U+003B
ENCODING 59
SWIDTH 500 0
DWIDTH 20 0
BBX 20 20 0 0
BITMAP
000000
000000
000000
000000
000000
00F000
00F000
00F000
00F000
000000
000000
00F000
00F000
00F000
00F000
01E000
03C000
000000
000000
000000
ENDCHAR
STARTCHAR U+003C
ENCODING 60
SWIDTH 500 0
DWIDTH 20 0
BBX 20 20 0 0
BITMAP
000000
001C00
003C00
007800
00F000
01E000
03C000
078000
0F0000
0F0000
078000
03C000
01E000
00F000
007800
003C00
001C00
000000
000000
000000
ENDCHAR
STARTCHAR U+003D
ENCODING 61
SWIDTH 500 0
DWIDTH 20 0
BBX 20 20 0 0
BITMAP
000000
000000
000000
000000
000000
000000
000000
0FFF00
0FFF00
000000
000000
0FFF00
0FFF00
000000
000000
000000
000000
000000
000000
000000
ENDCHAR
STARTCHAR U+003E
ENCODING 62
SWIDTH 500 0
DWIDTH 20 0
BBX 20 20 0 0
BITMAP
000000
038000
03C000
01E000
00F000
007800
003C00
001E00
000F00
000F00
001E00
003C00
007800
00F000
01E000
03C000
038000
000000
000000
000000
ENDCHAR
STARTCHAR U+003F
ENCODING 63
SWIDTH 500 0
DWIDTH 20 0
BBX 20 20 0 0
BITMAP
000000
000000
03FC00
07FE00
0F0F00
0E0F00
000F00
000F00
001E00
003C00
007800
00F000
000000
000000
00F000
00F000
000000
000000
000000
000000
ENDCHAR
STARTCHAR U+0040
ENCODING 64
SWIDTH 500 0
DWIDTH 20 0
BBX 20 20 0 0
BITMAP
000000
000000
07FC00
0FFE00
1E0700
1E0700
1E0700
1E7F00
1E7F00
1E7F00
1E0000
1E0000
1E0000
1E0000
0FFF00
07FF00
000000
000000
000000
000000
ENDCHAR
STARTCHAR U+0041
ENCODING 65
SWIDTH 500 0
DWIDTH 20 0
BBX 20 20 0 0
BITMAP
000000
000000
00F000
01F800
03FC00
07FE00
0F0F00
0F0F00
0F0F00
0F0F00
0FFF00
0FFF00
0F0F00
0F0F00
0F0F00
0F0F00
000000
000000
000000
000000
ENDCHAR
STARTCHAR U+0042
ENCODING 66
SWIDTH 500 0
DWIDTH 20 0
BBX 20 20 0 0
BITMAP
000000
000000
3FFC00
3FFC00
0F0F00
0F0F00
0F0F00
0F0F00
0FFC00
0FFC00
0F0F00
0F0F00
0F0F00
0F0F00
3FFC00
3FFC00
000000
000000
000000
000000
ENDCHAR
STARTCHAR U+0043
ENCODING 67
SWIDTH 500 0
DWIDTH 20 0
BBX 20 20 0 0
BITMAP
000000
000000
07FC00
0FFE00
1F0F00
1E0700
3C0000
3C0000
3C0000
3C0000
3C0000
3C0000
1E0700
1F0F00
0FFE00
07FC00
000000
000000
000000
000000
ENDCHAR
STARTCHAR U+0044
ENCODING 68
SWIDTH 500 0
DWIDTH 20 0
BBX 20 20 0 0
BITMAP
000000
000000
1FFC00
1FFE00
078F00
078700
078380
078380
078380
078380
078380
078380
078700
078F00
1FFE00
1FFC00
000000
000000
000000
000000
ENDCHAR
STARTCHAR U+0045
ENCODING 69
SWIDTH 500 0
DWIDTH 20 0
BBX 20 20 0 0
BITMAP
000000
000000
3FFF00
3FFF00
0F0700
0F0300
0F0000
0F0C00
0FFC00
0FFC00
0F0C00
0F0000
0F0300
0F0700
3FFF00
3FFF00
000000
000000
000000
000000
ENDCHAR
STARTCHAR U+0046
ENCODING 70
SWIDTH 500 0
DWIDTH 20 0
BBX 20 20 0 0
BITMAP
000000
000000
3FFF00
3FFF00
0F0700
0F0300
0F0000
0F0C00
0FFC00
0FFC00
0F0C00
0F0000
0F0000
0F0000
3FC000
3FC000
000000
000000
000000
000000
ENDCHAR
STARTCHAR U+0047
ENCODING 71
SWIDTH 500 0
DWIDTH 20 0
BBX 20 20 0 0
BITMAP
000000
000000
07FC00
0FFE00
1F0F00
1E0F00
3C0F00
3C0000
3C0000
3C0000
3C3F00
3C3F00
1E0F00
1F0F00
0FFF00
07FF00
000000
000000
000000
000000
ENDCHAR
STARTCHAR U+0048
ENCODING 72
SWIDTH 500 0
DWIDTH 20 0
BBX 20 20 0 0
BITMAP
000000
000000
0F0F00
0F0F00
0F0F00
0F0F00
0F0F00
0F0F00
0FFF00
0FFF00
0F0F00
0F0F00
0F0F00
0F0F00
0F0F00
0F0F00
000000
000000
000000
000000
ENDCHAR
STARTCHAR U+0049
ENCODING 73
SWIDTH 500 0
DWIDTH 20 0
BBX 20 20 0 0
BITMAP
000000
000000
03FC00
03FC00
00F000
00F000
00F000
00F000
00F000
00F000
00F000
00F000
00F000
00F000
03FC00
03FC00
000000
000000
000000
000000
ENDCHAR
STARTCHAR U+004A
ENCODING 74
SWIDTH 500 0
DWIDTH 20 0
BBX 20 20 0 0
BITMAP
000000
000000
00FF00
00FF00
003C00
003C00
003C00
003C00
003C00
003C00
3C3C00
3C3C00
3C3C00
3C3C00
1FF800
0FF000
000000
000000
000000
000000
ENDCHAR
STARTCHAR U+004B
ENCODING 75
SWIDTH 500 0
DWIDTH 20 0
BBX 20 20 0 0
BITMAP
000000
000000
3F03C0
3F03C0
0F0780
0F0F00
0F1E00
0F3C00
0FF800
0FF800
0F3C00
0F1E00
0F0F00
0F0780
3F03C0
3F03C0
000000
000000
000000
000000
ENDCHAR
STARTCHAR U+004C
ENCODING 76
SWIDTH 500 0
DWIDTH 20 0
BBX 20 20 0 0
BITMAP
000000
000000
1FE000
1FE000
078000
078000
078000
078000
078000
078000
078000
078000
078180
078380
1FFF80
1FFF80
000000
000000
000000
000000
ENDCHAR
STARTCHAR U+004D
ENCODING 77
SWIDTH 500 0
DWIDTH 20 0
BBX 20 20 0 0
BITMAP
000000
000000
1E0780
1F0F80
1F9F80
1FFF80
1FFF80
1FFF80
1EF780
1E6780
1E0780
1E0780
1E0780
1E0780
1E0780
1E0780
000000
000000
000000
000000
ENDCHAR
STARTCHAR U+004E
ENCODING 78
SWIDTH 500 0
DWIDTH 20 0
BBX 20 20 0 0
BITMAP
000000
000000
1E0780
1F0780
1F8780
1FC780
1FE780
1FF780
1FFF80
1EFF80
1E7F80
1E3F80
1E1F80
1E0F80
1E0780
1E0780
000000
000000
000000
000000
ENDCHAR
STARTCHAR U+004F
ENCODING 79
SWIDTH 500 0
DWIDTH 20 0
BBX 20 20 0 0
BITMAP
000000
000000
07FE00
0FFF00
1E0780
1E0780
1E0780
1E0780
1E0780
1E0780
1E0780
1E0780
1E0780
1E0780
0FFF00
07FE00
000000
000000
000000
000000
ENDCHAR
STARTCHAR U+0050
ENCODING 80
SWIDTH 500 0
DWIDTH 20 0
BBX 20 20 0 0
BITMAP
000000
000000
3FFC00
3FFE00
0F0F00
0F0F00
0F0F00
0F0F00
0FFE00
0FFC00
0F0000
0F0000
0F0000
0F0000
3FC000
3FC000
000000
000000
000000
000000
ENDCHAR
STARTCHAR U+0051
ENCODING 81
SWIDTH 500 0
DWIDTH 20 0
BBX 20 20 0 0
BITMAP
000000
000000
0FFC00
1FFE00
3C0F00
3C0F00
3C0F00
3C0F00
3C0F00
3C0F00
3C1F00
3C3F00
1FFC00
0FFC00
00FF00
007F00
000000
000000
000000
000000
ENDCHAR
STARTCHAR U+0052
ENCODING 82
SWIDTH 500 0
DWIDTH 20 0
BBX 20 20 0 0
BITMAP
000000
000000
3FFC00
3FFE00
0F0F00
0F0F00
0F0F00
0F0F00
0FFE00
0FFC00
0F7800
0F3C00
0F1E00
0F0F00
3F0F00
3F0F00
000000
000000
000000
000000
ENDCHAR
STARTCHAR U+0053
ENCODING 83
SWIDTH 500 0
DWIDTH 20 0
BBX 20 20 0 0
BITMAP
000000
000000
03FC00
07FE00
0F0F00
0F0F00
0F0000
0F0000
07F800
03FC00
001E00
000F00
0F0F00
0F0F00
07FE00
03FC00
000000
000000
000000
000000
ENDCHAR
STARTCHAR U+0054
ENCODING 84
SWIDTH 500 0
DWIDTH 20 0
BBX 20 20 0 0
BITMAP
000000
000000
0FFF00
0FFF00
0CF300
08F100
00F000
00F000
00F000
00F000
00F000
00F000
00F000
00F000
03FC00
03FC00
000000
000000
000000
000000
ENDCHAR
STARTCHAR U+0055
ENCODING 85
SWIDTH 500 0
DWIDTH 20 0
BBX 20 20 0 0
BITMAP
000000
000000
0F0F00
0F0F00
0F0F00
0F0F00
0F0F00
0F0F00
0F0F00
0F0F00
0F0F00
0F0F00
0F0F00
0F0F00
07FE00
03FC00
000000
000000
000000
000000
ENDCHAR
STARTCHAR U+0056
ENCODING 86
SWIDTH 500 0
DWIDTH 20 0
BBX 20 20 0 0
BITMAP
000000
000000
0F0F00
0F0F00
0F0F00
0F0F00
0F0F00
0F0F00
0F0F00
0F0F00
0F0F00
0F0F00
079E00
03FC00
01F800
00F000
000000
000000
000000
000000
ENDCHAR
STARTCHAR U+0057
ENCODING 87
SWIDTH 500 0
DWIDTH 20 0
BBX 20 20 0 0
BITMAP
000000
000000
1E0780
1E0780
1E0780
1E0780
1E0780
1E0780
1E6780
1E6780
1E6780
1E6780
0FFF00
0FFF00
079E00
079E00
000000
000000
000000
000000
ENDCHAR
STARTCHAR U+0058
ENCODING 88
SWIDTH 500 0
DWIDTH 20 0
BBX 20 20 0 0
BITMAP
000000
000000
0F0F00
0F0F00
0F0F00
079E00
03FC00
01F800
00F000
00F000
01F800
03FC00
079E00
0F0F00
0F0F00
0F0F00
000000
000000
000000
000000
ENDCHAR
STARTCHAR U+0059
ENCODING 89
SWIDTH 500 0
DWIDTH 20 0
BBX 20 20 0 0
BITMAP
000000
000000
0F0F00
0F0F00
0F0F00
0F0F00
0F0F00
0F0F00
079E00
03FC00
01F800
00F000
00F000
00F000
03FC00
03FC00
000000
000000
000000
000000
ENDCHAR
STARTCHAR U+005A
ENCODING 90
SWIDTH 500 0
DWIDTH 20 0
BBX 20 20 0 0
BITMAP
000000
000000
0FFF00
0FFF00
0F0F00
0E0F00
0C1E00
083C00
007800
00F000
01E000
03C000
07C100
0FC300
0FFF00
0FFF00
000000
000000
000000
000000
ENDCHAR
STARTCHAR U+005B
ENCODING 91
SWIDTH 500 0
DWIDTH 20 0
BBX 20 20 0 0
BITMAP
000000
000000
03FC00
03FC00
03C000
03C000
03C000
03C000
03C000
03C000
03C000
03C000
03C000
03C000
03FC00
03FC00
000000
000000
000000
000000
ENDCHAR
STARTCHAR U+005C
ENCODING 92
SWIDTH 500 0
DWIDTH 20 0
BBX 20 20 0 0
BITMAP
000000
000000
380000
3C0000
3E0000
1F0000
0F8000
07C000
03E000
01F000
00F800
007C00
003E00
001F00
000F80
0007C0
0003C0
0001C0
000000
000000
ENDCHAR
STARTCHAR U+005D
ENCODING 93
SWIDTH 500 0
DWIDTH 20 0
BBX 20 20 0 0
BITMAP
000000
000000
03FC00
03FC00
003C00
003C00
003C00
003C00
003C00
003C00
003C00
003C00
003C00
003C00
03FC00
03FC00
000000
000000
000000
000000
ENDCHAR
STARTCHAR U+005E
ENCODING 94
SWIDTH 500 0
DWIDTH 20 0
BBX 20 20 0 0
BITMAP
000000
000000
006000
00F000
01F800
03FC00
079E00
0F0F00
1E0780
1C0380
000000
000000
000000
000000
000000
000000
000000
000000
000000
000000
ENDCHAR
STARTCHAR U+005F
ENCODING 95
SWIDTH 500 0
DWIDTH 20 0
BBX 20 20 0 0
BITMAP
000000
000000
000000
000000
000000
000000
000000
000000
000000
000000
000000
000000
000000
000000
000000
000000
FFFFF0
FFFFF0
000000
000000
ENDCHAR
STARTCHAR U+0060
ENCODING 96
SWIDTH 500 0
DWIDTH 20 0
BBX 20 20 0 0
BITMAP
000000
01E000
01E000
01E000
01E000
00F000
007800
000000
000000
000000
000000
000000
000000
000000
000000
000000
000000
000000
000000
000000
ENDCHAR
STARTCHAR U+0061
ENCODING 97
SWIDTH 500 0
DWIDTH 20 0
BBX 20 20 0 0
BITMAP
000000
000000
000000
000000
000000
000000
0FF000
0FF800
003C00
003C00
0FFC00
1FFC00
3C3C00
3C3C00
1FFF00
0FE700
000000
000000
000000
000000
ENDCHAR
STARTCHAR U+0062
ENCODING 98
SWIDTH 500 0
DWIDTH 20 0
BBX 20 20 0 0
BITMAP
000000
000000
3F0000
3F0000
0F0000
0F0000
0FFC00
0FFE00
0F0F00
0F0F00
0F0F00
0F0F00
0F0F00
0F0F00
3FFE00
3FFC00
000000
000000
000000
000000
ENDCHAR
STARTCHAR U+0063
ENCODING 99
SWIDTH 500 0
DWIDTH 20 0
BBX 20 20 0 0
BITMAP
000000
000000
000000
000000
000000
000000
03FC00
07FE00
0F0F00
0E0700
0E0000
0E0000
0E0700
0F0F00
07FE00
03FC00
000000
000000
000000
000000
ENDCHAR
STARTCHAR U+0064
ENCODING 100
SWIDTH 500 0
DWIDTH 20 0
BBX 20 20 0 0
BITMAP
000000
000000
003F00
003F00
000F00
000F00
03FF00
07FF00
0F0F00
0F0F00
0F0F00
0F0F00
0F0F00
0F0F00
07FF00
03FF00
000000
000000
000000
000000
ENDCHAR
STARTCHAR U+0065
ENCODING 101
SWIDTH 500 0
DWIDTH 20 0
BBX 20 20 0 0
BITMAP
000000
000000
000000
000000
000000
000000
03FC00
07FE00
0F0F00
0F0F00
0FFF00
0FFF00
0F0000
0F0700
07FE00
03FC00
000000
000000
000000
000000
ENDCHAR
STARTCHAR U+0066
ENCODING 102
SWIDTH 500 0
DWIDTH 20 0
BBX 20 20 0 0
BITMAP
000000
000000
00FC00
01FE00
03CF00
03CF00
03C000
03C000
0FFC00
0FFC00
03C000
03C000
03C000
03C000
0FF000
0FF000
000000
000000
000000
000000
ENDCHAR
STARTCHAR U+0067
ENCODING 103
SWIDTH 500 0
DWIDTH 20 0
BBX 20 20 0 0
BITMAP
000000
000000
000000
000000
000000
000000
07E780
0FFF80
1E1E00
1E1E00
1E1E00
1E1E00
0FFE00
07FE00
001E00
1E1E00
1E1E00
0FFC00
07F800
000000
ENDCHAR
STARTCHAR U+0068
ENCODING 104
SWIDTH 500 0
DWIDTH 20 0
BBX 20 20 0 0
BITMAP
000000
000000
1F8000
1F8000
078000
078000
079E00
07BF00
07FF80
07C780
078780
078780
078780
078780
1F8780
1F8780
000000
000000
000000
000000
ENDCHAR
STARTCHAR U+0069
ENCODING 105
SWIDTH 500 0
DWIDTH 20 0
BBX 20 20 0 0
BITMAP
000000
000000
00F000
00F000
000000
000000
0FF000
0FF000
00F000
00F000
00F000
00F000
00F000
00F000
0FFF00
0FFF00
000000
000000
000000
000000
ENDCHAR
STARTCHAR U+006A
ENCODING 106
SWIDTH 500 0
DWIDTH 20 0
BBX 20 20 0 0
BITMAP
000000
000000
000F00
000F00
000000
000000
00FF00
00FF00
000F00
000F00
000F00
000F00
000F00
000F00
0F0F00
0F0F00
07FE00
03FC00
000000
000000
ENDCHAR
STARTCHAR U+006B
ENCODING 107
SWIDTH 500 0
DWIDTH 20 0
BBX 20 20 0 0
BITMAP
000000
000000
1F8000
1F8000
078000
078000
078380
078780
078F00
079E00
07FC00
07FC00
07BE00
079F00
1F8F80
1F8780
000000
000000
000000
000000
ENDCHAR
STARTCHAR U+006C
ENCODING 108
SWIDTH 500 0
DWIDTH 20 0
BBX 20 20 0 0
BITMAP
000000
000000
0FF000
0FF000
00F000
00F000
00F000
00F000
00F000
00F000
00F000
00F000
00F000
00F000
0FFF00
0FFF00
000000
000000
000000
000000
ENDCHAR
STARTCHAR U+006D
ENCODING 109
SWIDTH 500 0
DWIDTH 20 0
BBX 20 20 0 0
BITMAP
000000
000000
000000
000000
000000
000000
1FFE00
1FFF00
1E6780
1E6780
1E6780
1E6780
1E6780
1E6780
1E0780
1E0780
000000
000000
000000
000000
ENDCHAR
STARTCHAR U+006E
ENCODING 110
SWIDTH 500 0
DWIDTH 20 0
BBX 20 20 0 0
BITMAP
000000
000000
000000
000000
000000
000000
0FFC00
0FFE00
0F0F00
0F0F00
0F0F00
0F0F00
0F0F00
0F0F00
0F0F00
0F0F00
000000
000000
000000
000000
ENDCHAR
STARTCHAR U+006F
ENCODING 111
SWIDTH 500 0
DWIDTH 20 0
BBX 20 20 0 0
BITMAP
000000
000000
000000
000000
000000
000000
03FC00
07FE00
0F0F00
0F0F00
0F0F00
0F0F00
0F0F00
0F0F00
07FE00
03FC00
000000
000000
000000
000000
ENDCHAR
STARTCHAR U+0070
ENCODING 112
SWIDTH 500 0
DWIDTH 20 0
BBX 20 20 0 0
BITMAP
000000
000000
000000
000000
000000
000000
3CFC00
3DFE00
0F0F00
0F0F00
0F0F00
0F0F00
0F0F00
0F0F00
0FFE00
0FFC00
0F0000
0F0000
3FC000
3FC000
ENDCHAR
STARTCHAR U+0071
ENCODING 113
SWIDTH 500 0
DWIDTH 20 0
BBX 20 20 0 0
BITMAP
000000
000000
000000
000000
000000
000000
0FCF00
1FEF00
3C3C00
3C3C00
3C3C00
3C3C00
3C3C00
3C3C00
1FFC00
0FFC00
003C00
003C00
00FF00
00FF00
ENDCHAR
STARTCHAR U+0072
ENCODING 114
SWIDTH 500 0
DWIDTH 20 0
BBX 20 20 0 0
BITMAP
000000
000000
000000
000000
000000
000000
3F3E00
3F7F00
0FEF00
0FCF00
0F0000
0F0000
0F0000
0F0000
3FC000
3FC000
000000
000000
000000
000000
ENDCHAR
STARTCHAR U+0073
ENCODING 115
SWIDTH 500 0
DWIDTH 20 0
BBX 20 20 0 0
BITMAP
000000
000000
000000
000000
000000
000000
03FE00
07FF00
0F0300
0F8000
07F800
01FE00
001F00
0C0F00
0FFE00
07FC00
000000
000000
000000
000000
ENDCHAR
STARTCHAR U+0074
ENCODING 116
SWIDTH 500 0
DWIDTH 20 0
BBX 20 20 0 0
BITMAP
000000
000000
00C000
01C000
03C000
07C000
0FFF00
0FFF00
03C000
03C000
03C000
03C000
03C700
03CF00
01FE00
00FC00
000000
000000
000000
000000
ENDCHAR
STARTCHAR U+0075
ENCODING 117
SWIDTH 500 0
DWIDTH 20 0
BBX 20 20 0 0
BITMAP
000000
000000
000000
000000
000000
000000
0F0F00
0F0F00
0F0F00
0F0F00
0F0F00
0F0F00
0F0F00
0F0F00
07FFC0
03F3C0
000000
000000
000000
000000
ENDCHAR
STARTCHAR U+0076
ENCODING 118
SWIDTH 500 0
DWIDTH 20 0
BBX 20 20 0 0
BITMAP
000000
000000
000000
000000
000000
000000
0F0F00
0F0F00
0F0F00
0F0F00
0F0F00
0F0F00
079E00
03FC00
01F800
00F000
000000
000000
000000
000000
ENDCHAR
STARTCHAR U+0077
ENCODING 119
SWIDTH 500 0
DWIDTH 20 0
BBX 20 20 0 0
BITMAP
000000
000000
000000
000000
000000
000000
1E0780
1E0780
1E6780
1E6780
1E6780
1E6780
0FFF00
0FFF00
079E00
079E00
000000
000000
000000
000000
ENDCHAR
STARTCHAR U+0078
ENCODING 120
SWIDTH 500 0
DWIDTH 20 0
BBX 20 20 0 0
BITMAP
000000
000000
000000
000000
000000
000000
0E0700
0E0700
0F0F00
079E00
03FC00
03FC00
079E00
0F0F00
0E0700
0E0700
000000
000000
000000
000000
ENDCHAR
STARTCHAR U+0079
ENCODING 121
SWIDTH 500 0
DWIDTH 20 0
BBX 20 20 0 0
BITMAP
000000
000000
000000
000000
000000
000000
0F0F00
0F0F00
0F0F00
0F0F00
0F0F00
0F0F00
07FE00
03FE00
003C00
003C00
0FF800
0FF000
000000
000000
ENDCHAR
STARTCHAR U+007A
ENCODING 122
SWIDTH 500 0
DWIDTH 20 0
BBX 20 20 0 0
BITMAP
000000
000000
000000
000000
000000
000000
0FFF00
0FFF00
0C3E00
087C00
00F800
01F000
03E100
07C300
0FFF00
0FFF00
000000
000000
000000
000000
ENDCHAR
STARTCHAR U+007B
ENCODING 123
SWIDTH 500 0
DWIDTH 20 0
BBX 20 20 0 0
BITMAP
000000
000000
007E00
00FE00
01E000
01E000
01E000
03C000
078000
078000
03C000
01E000
01E000
01E000
00FE00
007E00
000000
000000
000000
000000
ENDCHAR
STARTCHAR U+007C
ENCODING 124
SWIDTH 500 0
DWIDTH 20 0
BBX 20 20 0 0
BITMAP
000000
000000
00F000
00F000
00F000
00F000
00F000
00F000
000000
000000
00F000
00F000
00F000
00F000
00F000
00F000
000000
000000
000000
000000
ENDCHAR
STARTCHAR U+007D
ENCODING 125
SWIDTH 500 0
DWIDTH 20 0
BBX 20 20 0 0
BITMAP
000000
000000
07E000
07F000
007800
007800
007800
003C00
001E00
001E00
003C00
007800
007800
007800
07F000
07E000
000000
000000
000000
000000
ENDCHAR
STARTCHAR U+007E
ENCODING 126
SWIDTH 500 0
DWIDTH 20 0
BBX 20 20 0 0
BITMAP
000000
000000
000000
0FC1C0
1FE3C0
3FFF80
387F00
303E00
000000
000000
000000
000000
000000
000000
000000
000000
000000
000000
000000
000000
ENDCHAR
STARTCHAR U+2302
ENCODING 8962
SWIDTH 500 0
DWIDTH 20 0
BBX 20 20 0 0
BITMAP
000000
000000
000000
000000
006000
00F000
01F800
03FC00
079E00
0F0F00
1E0780
1E0780
1E0780
1E0780
1FFF80
1FFF80
000000
000000
000000
000000
ENDCHAR
STARTCHAR U+00C7
ENCODING 199
SWIDTH 500 0
DWIDTH 20 0
BBX 20 20 0 0
BITMAP
000000
000000
03FE00
07FF00
0F8780
0F0380
1E0000
1E0000
1E0000
1E0000
1E0000
1E0000
0F0380
0F8780
07FF00
03FE00
007800
007800
07F800
07F000
ENDCHAR
STARTCHAR U+00FC
ENCODING 252
SWIDTH 500 0
DWIDTH 20 0
BBX 20 20 0 0
BITMAP
0F0F00
0F0F00
0F0F00
0F0F00
000000
000000
0F0F00
0F0F00
0F0F00
0F0F00
0F0F00
0F0F00
0F0F00
0F0F00
07FFC0
03F3C0
000000
000000
000000
000000
ENDCHAR
STARTCHAR U+00E9
ENCODING 233
SWIDTH 500 0
DWIDTH 20 0
BBX 20 20 0 0
BITMAP
000000
003C00
007800
00F000
000000
000000
03FC00
07FE00
0F0F00
0F0F00
0FFF00
0FFF00
0F0000
0F0700
07FE00
03FC00
000000
000000
000000
000000
ENDCHAR
STARTCHAR U+00E2
ENCODING 226
SWIDTH 500 0
DWIDTH 20 0
BBX 20 20 0 0
BITMAP
000000
03F000
07F800
0F3C00
000000
000000
07F800
07FC00
001E00
001E00
07FE00
0FFE00
1E1E00
1E1E00
0FFF80
07E780
000000
000000
000000
000000
ENDCHAR
STARTCHAR U+00E4
ENCODING 228
SWIDTH 500 0
DWIDTH 20 0
BBX 20 20 0 0
BITMAP
1E1E00
1E1E00
1E1E00
1E1E00
000000
000000
07F800
07FC00
001E00
001E00
07FE00
0FFE00
1E1E00
1E1E00
0FFF80
07E780
000000
000000
000000
000000
ENDCHAR
STARTCHAR U+00E0
ENCODING 224
SWIDTH 500 0
DWIDTH 20 0
BBX 20 20 0 0
BITMAP
000000
078000
03C000
01E000
000000
000000
07F800
07FC00
001E00
001E00
07FE00
0FFE00
1E1E00
1E1E00
0FFF80
07E780
000000
000000
000000
000000
ENDCHAR
STARTCHAR U+00E5
ENCODING 229
SWIDTH 500 0
DWIDTH 20 0
BBX 20 20 0 0
BITMAP
01F800
039C00
070E00
070E00
039C00
01F800
07F800
07FC00
001E00
001E00
07FE00
0FFE00
1E1E00
1E1E00
0FFF80
07E780
000000
000000
000000
000000
ENDCHAR
STARTCHAR U+00E7
ENCODING 231
SWIDTH 500 0
DWIDTH 20 0
BBX 20 20 0 0
BITMAP
000000
000000
000000
000000
000000
000000
03FC00
07FE00
0F0F00
0F0700
0F0000
0F0000
0F0700
0F0F00
07FE00
03FC00
00F000
00F000
0FF000
0FE000
ENDCHAR
STARTCHAR U+00EA
ENCODING 234
SWIDTH 500 0
DWIDTH 20 0
BBX 20 20 0 0
BITMAP
000000
01F800
03FC00
079E00
000000
000000
03FC00
07FE00
0F0F00
0F0F00
0FFF00
0FFF00
0F0000
0F0700
07FE00
03FC00
000000
000000
000000
000000
ENDCHAR
STARTCHAR U+00EB
ENCODING 235
SWIDTH 500 0
DWIDTH 20 0
BBX 20 20 0 0
BITMAP
0F0F00
0F0F00
0F0F00
0F0F00
000000
000000
03FC00
07FE00
0F0F00
0F0F00
0FFF00
0FFF00
0F0000
0F0700
07FE00
03FC00
000000
000000
000000
000000
ENDCHAR
STARTCHAR U+00E8
ENCODING 232
SWIDTH 500 0
DWIDTH 20 0
BBX 20 20 0 0
BITMAP
03C000
01E000
00F000
000000
000000
000000
03FC00
07FE00
0F0F00
0F0F00
0FFF00
0FFF00
0F0000
0F0700
07FE00
03FC00
000000
000000
000000
000000
ENDCHAR
STARTCHAR U+00EF
ENCODING 239
SWIDTH 500 0
DWIDTH 20 0
BBX 20 20 0 0
BITMAP
1E1E00
1E1E00
1E1E00
1E1E00
000000
000000
0FF000
0FF000
00F000
00F000
00F000
00F000
00F000
00F000
0FFF00
0FFF00
000000
000000
000000
000000
ENDCHAR
STARTCHAR U+00EE
ENCODING 238
SWIDTH 500 0
DWIDTH 20 0
BBX 20 20 0 0
BITMAP
000000
01F800
03FC00
079E00
000000
000000
0FF000
0FF000
00F000
00F000
00F000
00F000
00F000
00F000
0FFF00
0FFF00
000000
000000
000000
000000
ENDCHAR
STARTCHAR U+00EC
ENCODING 236
SWIDTH 500 0
DWIDTH 20 0
BBX 20 20 0 0
BITMAP
000000
03C000
01E000
00F000
000000
000000
0FF000
0FF000
00F000
00F000
00F000
00F000
00F000
00F000
0FFF00
0FFF00
000000
000000
000000
000000
ENDCHAR
STARTCHAR U+00C4
ENCODING 196
SWIDTH 500 0
DWIDTH 20 0
BBX 20 20 0 0
BITMAP
0F0F00
0F0F00
000000
000000
00F000
01F800
03FC00
07FE00
0F0F00
0F0F00
0F0F00
0F0F00
0FFF00
0FFF00
0F0F00
0F0F00
000000
000000
000000
000000
ENDCHAR
STARTCHAR U+00C5
ENCODING 197
SWIDTH 500 0
DWIDTH 20 0
BBX 20 20 0 0
BITMAP
01F800
039C00
070E00
070E00
039C00
01F800
03FC00
07FE00
0F0F00
0F0F00
0F0F00
0F0F00
0FFF00
0FFF00
0F0F00
0F0F00
000000
000000
000000
000000
ENDCHAR
STARTCHAR U+00C9
ENCODING 201
SWIDTH 500 0
DWIDTH 20 0
BBX 20 20 0 0
BITMAP
000000
007800
01E000
000000
07FE00
07FE00
070600
070200
070800
07F800
07F800
070800
070200
070600
07FE00
07FE00
000000
000000
000000
000000
ENDCHAR
STARTCHAR U+00E6
ENCODING 230
SWIDTH 500 0
DWIDTH 20 0
BBX 20 20 0 0
BITMAP
000000
000000
000000
000000
000000
000000
0FFF00
0FFF80
00F1C0
00F0C0
0FFFC0
1FFFC0
3CF000
3CF1C0
3FBFC0
1F1F80
000000
000000
000000
000000
ENDCHAR
STARTCHAR U+00C6
ENCODING 198
SWIDTH 500 0
DWIDTH 20 0
BBX 20 20 0 0
BITMAP
000000
000000
03FFC0
03FFC0
0FFC00
0FFC00
3C3C00
3C3C00
3FFFC0
3FFFC0
3C3C00
3C3C00
3C3C00
3C3C00
3C3FC0
3C3FC0
000000
000000
000000
000000
ENDCHAR
STARTCHAR U+00F4
ENCODING 244
SWIDTH 500 0
DWIDTH 20 0
BBX 20 20 0 0
BITMAP
000000
01F800
03FC00
079E00
000000
000000
03FC00
07FE00
0F0F00
0F0F00
0F0F00
0F0F00
0F0F00
0F0F00
07FE00
03FC00
000000
000000
000000
000000
ENDCHAR
STARTCHAR U+00F6
ENCODING 246
SWIDTH 500 0
DWIDTH 20 0
BBX 20 20 0 0
BITMAP
0F0F00
0F0F00
0F0F00
0F0F00
000000
000000
03FC00
07FE00
0F0F00
0F0F00
0F0F00
0F0F00
0F0F00
0F0F00
07FE00
03FC00
000000
000000
000000
000000
ENDCHAR
STARTCHAR U+00F2
ENCODING 242
SWIDTH 500 0
DWIDTH 20 0
BBX 20 20 0 0
BITMAP
000000
000000
03C000
01E000
00F000
000000
03FC00
07FE00
0F0F00
0F0F00
0F0F00
0F0F00
0F0F00
0F0F00
07FE00
03FC00
000000
000000
000000
000000
ENDCHAR
STARTCHAR U+00FB
ENCODING 251
SWIDTH 500 0
DWIDTH 20 0
BBX 20 20 0 0
BITMAP
000000
01F800
03FC00
079E00
000000
000000
0F0F00
0F0F00
0F0F00
0F0F00
0F0F00
0F0F00
0F0F00
0F0F00
07FE00
03FC00
000000
000000
000000
000000
ENDCHAR
STARTCHAR U+00F9
ENCODING 249
SWIDTH 500 0
DWIDTH 20 0
BBX 20 20 0 0
BITMAP
000000
000000
03C000
01E000
00F000
000000
0F0F00
0F0F00
0F0F00
0F0F00
0F0F00
0F0F00
0F0F00
0F0F00
07FE00
03FC00
000000
000000
000000
000000
ENDCHAR
STARTCHAR U+00FF
ENCODING 255
SWIDTH 500 0
DWIDTH 20 0
BBX 20 20 0 0
BITMAP
0F0F00
0F0F00
0F0F00
0F0F00
000000
000000
0F0F00
0F0F00
0F0F00
0F0F00
0F0F00
0F0F00
07FF00
03FF00
000F00
000F00
03FE00
03FC00
000000
000000
ENDCHAR
STARTCHAR U+00D6
ENCODING 214
SWIDTH 500 0
DWIDTH 20 0
BBX 20 20 0 0
BITMAP
0F0F00
0F0F00
000000
000000
03FC00
07FE00
0F0F00
0F0F00
0F0F00
0F0F00
0F0F00
0F0F00
0F0F00
0F0F00
07FE00
03FC00
000000
000000
000000
000000
ENDCHAR
STARTCHAR U+00DC
ENCODING 220
SWIDTH 500 0
DWIDTH 20 0
BBX 20 20 0 0
BITMAP
0F0F00
0F0F00
000000
000000
0F0F00
0F0F00
0F0F00
0F0F00
0F0F00
0F0F00
0F0F00
0F0F00
0F0F00
0F0F00
07FE00
03FC00
000000
000000
000000
000000
ENDCHAR
STARTCHAR U+00A2
ENCODING 162
SWIDTH 500 0
DWIDTH 20 0
BBX 20 20 0 0
BITMAP
00F000
00F000
00F000
00F000
03FC00
07FE00
0F0F00
0F0700
0F0000
0F0000
0F0700
0F0F00
07FE00
03FC00
00F000
00F000
00F000
00F000
000000
000000
ENDCHAR
STARTCHAR U+00A3
ENCODING 163
SWIDTH 500 0
DWIDTH 20 0
BBX 20 20 0 0
BITMAP
000000
000000
03FC00
07FE00
0F0F00
0F0700
0F0000
0F0000
3FFC00
3FFC00
0F0000
0F0000
0F0000
0E0000
0E0100
1C0300
3FFF00
3FFF00
000000
000000
ENDCHAR
STARTCHAR U+00A5
ENCODING 165
SWIDTH 500 0
DWIDTH 20 0
BBX 20 20 0 0
BITMAP
000000
000000
0F0F00
0F0F00
0F0F00
0F0F00
0F0F00
0F0F00
07FE00
03FC00
0FFF00
0FFF00
00F000
00F000
0FFF00
0FFF00
00F000
00F000
000000
000000
ENDCHAR
STARTCHAR U+20A7
ENCODING 8359
SWIDTH 500 0
DWIDTH 20 0
BBX 20 20 0 0
BITMAP
000000
000000
3FC000
3FE000
303000
303000
303000
3FE000
3FC000
303000
303000
30FF00
30FF00
303C00
303C40
303CC0
301F80
300F00
000000
000000
ENDCHAR
STARTCHAR U+0192
ENCODING 402
SWIDTH 500 0
DWIDTH 20 0
BBX 20 20 0 0
BITMAP
000000
000000
003F00
007F80
00F3C0
00F3C0
00F000
00F000
0FFF00
0FFF00
00F000
00F000
00F000
00F000
38F000
38F000
1FE000
0FC000
000000
000000
ENDCHAR
STARTCHAR U+00E1
ENCODING 225
SWIDTH 500 0
DWIDTH 20 0
BBX 20 20 0 0
BITMAP
000000
007800
00F000
01E000
000000
000000
07F800
07FC00
001E00
001E00
07FE00
0FFE00
1E1E00
1E1E00
0FFF80
07E780
000000
000000
000000
000000
ENDCHAR
STARTCHAR U+00ED
ENCODING 237
SWIDTH 500 0
DWIDTH 20 0
BBX 20 20 0 0
BITMAP
000000
007800
00F000
01E000
000000
000000
07F800
07F800
007800
007800
007800
007800
007800
007800
07FF80
07FF80
000000
000000
000000
000000
ENDCHAR
STARTCHAR U+00F3
ENCODING 243
SWIDTH 500 0
DWIDTH 20 0
BBX 20 20 0 0
BITMAP
000000
003C00
007800
00F000
000000
000000
03FC00
07FE00
0F0F00
0F0F00
0F0F00
0F0F00
0F0F00
0F0F00
07FE00
03FC00
000000
000000
000000
000000
ENDCHAR
STARTCHAR U+00FA
ENCODING 250
SWIDTH 500 0
DWIDTH 20 0
BBX 20 20 0 0
BITMAP
000000
003C00
007800
00F000
000000
000000
0F0F00
0F0F00
0F0F00
0F0F00
0F0F00
0F0F00
0F0F00
0F0F00
07FFC0
03F9C0
000000
000000
000000
000000
ENDCHAR
STARTCHAR U+00F1
ENCODING 241
SWIDTH 500 0
DWIDTH 20 0
BBX 20 20 0 0
BITMAP
000000
03F1C0
07BB80
0F1F00
000000
000000
0FFC00
0FFE00
0F0F00
0F0F00
0F0F00
0F0F00
0F0F00
0F0F00
0F0F00
0F0F00
000000
000000
000000
000000
ENDCHAR
STARTCHAR U+00D1
ENCODING 209
SWIDTH 500 0
DWIDTH 20 0
BBX 20 20 0 0
BITMAP
000000
07E380
0F7700
1E3E00
000000
1F0780
1F8780
1FC780
1FE780
1EF780
1E7F80
1E3F80
1E1F80
1E0F80
1E0780
1E0780
000000
000000
000000
000000
ENDCHAR
STARTCHAR U+00AA
ENCODING 170
SWIDTH 500 0
DWIDTH 20 0
BBX 20 20 0 0
BITMAP
000000
000000
03F000
03F800
001C00
03FC00
07FC00
0F1C00
07FF00
03EF00
000000
1FFF80
1FFF80
000000
000000
000000
000000
000000
000000
000000
ENDCHAR
STARTCHAR U+00BA
ENCODING 186
SWIDTH 500 0
DWIDTH 20 0
BBX 20 20 0 0
BITMAP
000000
000000
03F800
07FC00
0E0E00
0E0E00
0E0E00
0E0E00
07FC00
03F800
000000
1FFF80
1FFF80
000000
000000
000000
000000
000000
000000
000000
ENDCHAR
STARTCHAR U+00BF
ENCODING 191
SWIDTH 500 0
DWIDTH 20 0
BBX 20 20 0 0
BITMAP
000000
000000
00F000
00F000
000000
000000
00F000
01E000
03C000
078000
0F0000
0F0000
0F0700
0F0F00
07FE00
03FC00
000000
000000
000000
000000
ENDCHAR
STARTCHAR U+2310
ENCODING 8976
SWIDTH 500 0
DWIDTH 20 0
BBX 20 20 0 0
BITMAP
000000
000000
000000
000000
000000
000000
0FFF00
0FFF00
0F0000
0F0000
0F0000
0F0000
0F0000
0F0000
000000
000000
000000
000000
000000
000000
ENDCHAR
STARTCHAR U+00AC
ENCODING 172
SWIDTH 500 0
DWIDTH 20 0
BBX 20 20 0 0
BITMAP
000000
000000
000000
000000
000000
000000
0FFF00
0FFF00
000F00
000F00
000F00
000F00
000F00
000F00
000000
000000
000000
000000
000000
000000
ENDCHAR
STARTCHAR U+00BD
ENCODING 189
SWIDTH 500 0
DWIDTH 20 0
BBX 20 20 0 0
BITMAP
000000
0C0380
1C0780
3C0F00
0C1E00
0C3C00
0C7800
0CF000
01E000
03C000
079F00
0F3F80
1E31C0
3C03C0
380780
300F00
001E00
003FC0
003FC0
000000
ENDCHAR
STARTCHAR U+00BC
ENCODING 188
SWIDTH 500 0
DWIDTH 20 0
BBX 20 20 0 0
BITMAP
000000
0C0380
1C0780
3C0F00
0C1E00
0C3C00
0C7800
0CF000
01E380
03C780
078F80
0F1F80
1E3B80
3C7380
38E380
30FF80
00FF80
000380
000380
000000
ENDCHAR
STARTCHAR U+00A1
ENCODING 161
SWIDTH 500 0
DWIDTH 20 0
BBX 20 20 0 0
BITMAP
000000
000000
00F000
00F000
00F000
00F000
000000
000000
00F000
00F000
01F800
01F800
03FC00
03FC00
03FC00
03FC00
01F800
00F000
000000
000000
ENDCHAR
STARTCHAR U+00AB
ENCODING 171
SWIDTH 500 0
DWIDTH 20 0
BBX 20 20 0 0
BITMAP
000000
000000
000000
000000
03C3C0
078780
0F0F00
1E1E00
3C3C00
3C3C00
3C3C00
3C3C00
1E1E00
0F0F00
078780
03C3C0
000000
000000
000000
000000
ENDCHAR
STARTCHAR U+00BB
ENCODING 187
SWIDTH 500 0
DWIDTH 20 0
BBX 20 20 0 0
BITMAP
000000
000000
000000
000000
3C3C00
1E1E00
0F0F00
078780
03C3C0
03C3C0
03C3C0
03C3C0
078780
0F0F00
1E1E00
3C3C00
000000
000000
000000
000000
ENDCHAR
STARTCHAR U+2591
ENCODING 9617
SWIDTH 500 0
DWIDTH 20 0
BBX 20 20 0 0
BITMAP
222220
888880
222220
888880
222220
888880
222220
888880
222220
888880
222220
888880
222220
888880
222220
888880
222220
888880
222220
888880
ENDCHAR
STARTCHAR U+2592
ENCODING 9618
SWIDTH 500 0
DWIDTH 20 0
BBX 20 20 0 0
BITMAP
555550
AAAAA0
555550
AAAAA0
555550
AAAAA0
555550
AAAAA0
555550
AAAAA0
555550
AAAAA0
555550
AAAAA0
555550
AAAAA0
555550
AAAAA0
555550
AAAAA0
ENDCHAR
STARTCHAR U+2593
ENCODING 9619
SWIDTH 500 0
DWIDTH 20 0
BBX 20 20 0 0
BITMAP
DDDDD0
777770
DDDDD0
777770
DDDDD0
777770
DDDDD0
777770
DDDDD0
777770
DDDDD0
777770
DDDDD0
777770
DDDDD0
777770
DDDDD0
777770
DDDDD0
777770
ENDCHAR
STARTCHAR U+2502
ENCODING 9474
SWIDTH 500 0
DWIDTH 20 0
BBX 20 20 0 0
BITMAP
00F000
00F000
00F000
00F000
00F000
00F000
00F000
00F000
00F000
00F000
00F000
00F000
00F000
00F000
00F000
00F000
00F000
00F000
00F000
00F000
ENDCHAR
STARTCHAR U+2524
ENCODING 9508
SWIDTH 500 0
DWIDTH 20 0
BBX 20 20 0 0
BITMAP
00F000
00F000
00F000
00F000
00F000
00F000
00F000
00F000
FFF000
FFF000
FFF000
FFF000
00F000
00F000
00F000
00F000
00F000
00F000
00F000
00F000
ENDCHAR
STARTCHAR U+2561
ENCODING 9569
SWIDTH 500 0
DWIDTH 20 0
BBX 20 20 0 0
BITMAP
00F000
00F000
00F000
00F000
FFF000
FFF000
FFF000
FFF000
00F000
00F000
00F000
00F000
FFF000
FFF000
FFF000
FFF000
00F000
00F000
00F000
00F000
ENDCHAR
STARTCHAR U+2562
ENCODING 9570
SWIDTH 500 0
DWIDTH 20 0
BBX 20 20 0 0
BITMAP
0F0F00
0F0F00
0F0F00
0F0F00
0F0F00
0F0F00
0F0F00
0F0F00
FF0F00
FF0F00
FF0F00
FF0F00
0F0F00
0F0F00
0F0F00
0F0F00
0F0F00
0F0F00
0F0F00
0F0F00
ENDCHAR
STARTCHAR U+2556
ENCODING 9558
SWIDTH 500 0
DWIDTH 20 0
BBX 20 20 0 0
BITMAP
000000
000000
000000
000000
000000
000000
000000
000000
FFFF00
FFFF00
FFFF00
FFFF00
0F0F00
0F0F00
0F0F00
0F0F00
0F0F00
0F0F00
0F0F00
0F0F00
ENDCHAR
STARTCHAR U+2555
ENCODING 9557
SWIDTH 500 0
DWIDTH 20 0
BBX 20 20 0 0
BITMAP
000000
000000
000000
000000
FFF000
FFF000
FFF000
FFF000
00F000
00F000
00F000
00F000
FFF000
FFF000
FFF000
FFF000
00F000
00F000
00F000
00F000
ENDCHAR
STARTCHAR U+2563
ENCODING 9571
SWIDTH 500 0
DWIDTH 20 0
BBX 20 20 0 0
BITMAP
0F0F00
0F0F00
0F0F00
0F0F00
FF0F00
FF0F00
FF0F00
FF0F00
000F00
000F00
000F00
000F00
FF0F00
FF0F00
FF0F00
FF0F00
0F0F00
0F0F00
0F0F00
0F0F00
ENDCHAR
STARTCHAR U+2551
ENCODING 9553
SWIDTH 500 0
DWIDTH 20 0
BBX 20 20 0 0
BITMAP
0F0F00
0F0F00
0F0F00
0F0F00
0F0F00
0F0F00
0F0F00
0F0F00
0F0F00
0F0F00
0F0F00
0F0F00
0F0F00
0F0F00
0F0F00
0F0F00
0F0F00
0F0F00
0F0F00
0F0F00
ENDCHAR
STARTCHAR U+2557
ENCODING 9559
SWIDTH 500 0
DWIDTH 20 0
BBX 20 20 0 0
BITMAP
000000
000000
000000
000000
FFFF00
FFFF00
FFFF00
FFFF00
000F00
000F00
000F00
000F00
FF0F00
FF0F00
FF0F00
FF0F00
0F0F00
0F0F00
0F0F00
0F0F00
ENDCHAR
STARTCHAR U+255D
ENCODING 9565
SWIDTH 500 0
DWIDTH 20 0
BBX 20 20 0 0
BITMAP
0F0F00
0F0F00
0F0F00
0F0F00
FF0F00
FF0F00
FF0F00
FF0F00
000F00
000F00
000F00
000F00
FFFF00
FFFF00
FFFF00
FFFF00
000000
000000
000000
000000
ENDCHAR
STARTCHAR U+255C
ENCODING 9564
SWIDTH 500 0
DWIDTH 20 0
BBX 20 20 0 0
BITMAP
0F0F00
0F0F00
0F0F00
0F0F00
0F0F00
0F0F00
0F0F00
0F0F00
FFFF00
FFFF00
FFFF00
FFFF00
000000
000000
000000
000000
000000
000000
000000
000000
ENDCHAR
STARTCHAR U+255B
ENCODING 9563
SWIDTH 500 0
DWIDTH 20 0
BBX 20 20 0 0
BITMAP
00F000
00F000
00F000
00F000
FFF000
FFF000
FFF000
FFF000
00F000
00F000
00F000
00F000
FFF000
FFF000
FFF000
FFF000
000000
000000
000000
000000
ENDCHAR
STARTCHAR U+2510
ENCODING 9488
SWIDTH 500 0
DWIDTH 20 0
BBX 20 20 0 0
BITMAP
000000
000000
000000
000000
000000
000000
000000
000000
FFF000
FFF000
FFF000
FFF000
00F000
00F000
00F000
00F000
00F000
00F000
00F000
00F000
ENDCHAR
STARTCHAR U+2514
ENCODING 9492
SWIDTH 500 0
DWIDTH 20 0
BBX 20 20 0 0
BITMAP
00F000
00F000
00F000
00F000
00F000
00F000
00F000
00F000
00FFF0
00FFF0
00FFF0
00FFF0
000000
000000
000000
000000
000000
000000
000000
000000
ENDCHAR
STARTCHAR U+2534
ENCODING 9524
SWIDTH 500 0
DWIDTH 20 0
BBX 20 20 0 0
BITMAP
00F000
00F000
00F000
00F000
00F000
00F000
00F000
00F000
FFFFF0
FFFFF0
FFFFF0
FFFFF0
000000
000000
000000
000000
000000
000000
000000
000000
ENDCHAR
STARTCHAR U+252C
ENCODING 9516
SWIDTH 500 0
DWIDTH 20 0
BBX 20 20 0 0
BITMAP
000000
000000
000000
000000
000000
000000
000000
000000
FFFFF0
FFFFF0
FFFFF0
FFFFF0
00F000
00F000
00F000
00F000
00F000
00F000
00F000
00F000
ENDCHAR
STARTCHAR U+251C
ENCODING 9500
SWIDTH 500 0
DWIDTH 20 0
BBX 20 20 0 0
BITMAP
00F000
00F000
00F000
00F000
00F000
00F000
00F000
00F000
00FFF0
00FFF0
00FFF0
00FFF0
00F000
00F000
00F000
00F000
00F000
00F000
00F000
00F000
ENDCHAR
STARTCHAR U+2500
ENCODING 9472
SWIDTH 500 0
DWIDTH 20 0
BBX 20 20 0 0
BITMAP
000000
000000
000000
000000
000000
000000
000000
000000
FFFFF0
FFFFF0
FFFFF0
FFFFF0
000000
000000
000000
000000
000000
000000
000000
000000
ENDCHAR
STARTCHAR U+253C
ENCODING 9532
SWIDTH 500 0
DWIDTH 20 0
BBX 20 20 0 0
BITMAP
00F000
00F000
00F000
00F000
00F000
00F000
00F000
00F000
FFFFF0
FFFFF0
FFFFF0
FFFFF0
00F000
00F000
00F000
00F000
00F000
00F000
00F000
00F000
ENDCHAR
STARTCHAR U+255E
ENCODING 9566
SWIDTH 500 0
DWIDTH 20 0
BBX 20 20 0 0
BITMAP
00F000
00F000
00F000
00F000
00FFF0
00FFF0
00FFF0
00FFF0
00F000
00F000
00F000
00F000
00FFF0
00FFF0
00FFF0
00FFF0
00F000
00F000
00F000
00F000
ENDCHAR
STARTCHAR U+255F
ENCODING 9567
SWIDTH 500 0
DWIDTH 20 0
BBX 20 20 0 0
BITMAP
0F0F00
0F0F00
0F0F00
0F0F00
0F0F00
0F0F00
0F0F00
0F0F00
0F0FF0
0F0FF0
0F0FF0
0F0FF0
0F0F00
0F0F00
0F0F00
0F0F00
0F0F00
0F0F00
0F0F00
0F0F00
ENDCHAR
STARTCHAR U+255A
ENCODING 9562
SWIDTH 500 0
DWIDTH 20 0
BBX 20 20 0 0
BITMAP
0F0F00
0F0F00
0F0F00
0F0F00
0F0FF0
0F0FF0
0F0FF0
0F0FF0
0F0000
0F0000
0F0000
0F0000
0FFFF0
0FFFF0
0FFFF0
0FFFF0
000000
000000
000000
000000
ENDCHAR
STARTCHAR U+2554
ENCODING 9556
SWIDTH 500 0
DWIDTH 20 0
BBX 20 20 0 0
BITMAP
000000
000000
000000
000000
0FFFF0
0FFFF0
0FFFF0
0FFFF0
0F0000
0F0000
0F0000
0F0000
0F0FF0
0F0FF0
0F0FF0
0F0FF0
0F0F00
0F0F00
0F0F00
0F0F00
ENDCHAR
STARTCHAR U+2569
ENCODING 9577
SWIDTH 500 0
DWIDTH 20 0
BBX 20 20 0 0
BITMAP
0F0F00
0F0F00
0F0F00
0F0F00
FF0FF0
FF0FF0
FF0FF0
FF0FF0
000000
000000
000000
000000
FFFFF0
FFFFF0
FFFFF0
FFFFF0
000000
000000
000000
000000
ENDCHAR
STARTCHAR U+2566
ENCODING 9574
SWIDTH 500 0
DWIDTH 20 0
BBX 20 20 0 0
BITMAP
000000
000000
000000
000000
FFFFF0
FFFFF0
FFFFF0
FFFFF0
000000
000000
000000
000000
FF0FF0
FF0FF0
FF0FF0
FF0FF0
0F0F00
0F0F00
0F0F00
0F0F00
ENDCHAR
STARTCHAR U+2560
ENCODING 9568
SWIDTH 500 0
DWIDTH 20 0
BBX 20 20 0 0
BITMAP
0F0F00
0F0F00
0F0F00
0F0F00
0F0FF0
0F0FF0
0F0FF0
0F0FF0
0F0000
0F0000
0F0000
0F0000
0F0FF0
0F0FF0
0F0FF0
0F0FF0
0F0F00
0F0F00
0F0F00
0F0F00
ENDCHAR
STARTCHAR U+2550
ENCODING 9552
SWIDTH 500 0
DWIDTH 20 0
BBX 20 20 0 0
BITMAP
000000
000000
000000
000000
FFFFF0
FFFFF0
FFFFF0
FFFFF0
000000
000000
000000
000000
FFFFF0
FFFFF0
FFFFF0
FFFFF0
000000
000000
000000
000000
ENDCHAR
STARTCHAR U+256C
ENCODING 9580
SWIDTH 500 0
DWIDTH 20 0
BBX 20 20 0 0
BITMAP
0F0F00
0F0F00
0F0F00
0F0F00
FF0FF0
FF0FF0
FF0FF0
FF0FF0
000000
000000
000000
000000
FF0FF0
FF0FF0
FF0FF0
FF0FF0
0F0F00
0F0F00
0F0F00
0F0F00
ENDCHAR
STARTCHAR U+2567
ENCODING 9575
SWIDTH 500 0
DWIDTH 20 0
BBX 20 20 0 0
BITMAP
00F000
00F000
00F000
00F000
FFFFF0
FFFFF0
FFFFF0
FFFFF0
000000
000000
000000
000000
FFFFF0
FFFFF0
FFFFF0
FFFFF0
000000
000000
000000
000000
ENDCHAR
STARTCHAR U+2568
ENCODING 9576
SWIDTH 500 0
DWIDTH 20 0
BBX 20 20 0 0
BITMAP
0F0F00
0F0F00
0F0F00
0F0F00
0F0F00
0F0F00
0F0F00
0F0F00
FFFFF0
FFFFF0
FFFFF0
FFFFF0
000000
000000
000000
000000
000000
000000
000000
000000
ENDCHAR
STARTCHAR U+2564
ENCODING 9572
SWIDTH 500 0
DWIDTH 20 0
BBX 20 20 0 0
BITMAP
000000
000000
000000
000000
FFFFF0
FFFFF0
FFFFF0
FFFFF0
000000
000000
000000
000000
FFFFF0
FFFFF0
FFFFF0
FFFFF0
00F000
00F000
00F000
00F000
ENDCHAR
STARTCHAR U+2565
ENCODING 9573
SWIDTH 500 0
DWIDTH 20 0
BBX 20 20 0 0
BITMAP
000000
000000
000000
000000
000000
000000
000000
000000
FFFFF0
FFFFF0
FFFFF0
FFFFF0
0F0F00
0F0F00
0F0F00
0F0F00
0F0F00
0F0F00
0F0F00
0F0F00
ENDCHAR
STARTCHAR U+2559
ENCODING 9561
SWIDTH 500 0
DWIDTH 20 0
BBX 20 20 0 0
BITMAP
0F0F00
0F0F00
0F0F00
0F0F00
0F0F00
0F0F00
0F0F00
0F0F00
0FFFF0
0FFFF0
0FFFF0
0FFFF0
000000
000000
000000
000000
000000
000000
000000
000000
ENDCHAR
STARTCHAR U+2558
ENCODING 9560
SWIDTH 500 0
DWIDTH 20 0
BBX 20 20 0 0
BITMAP
00F000
00F000
00F000
00F000
00FFF0
00FFF0
00FFF0
00FFF0
00F000
00F000
00F000
00F000
00FFF0
00FFF0
00FFF0
00FFF0
000000
000000
000000
000000
ENDCHAR
STARTCHAR U+2552
ENCODING 9554
SWIDTH 500 0
DWIDTH 20 0
BBX 20 20 0 0
BITMAP
000000
000000
000000
000000
00FFF0
00FFF0
00FFF0
00FFF0
00F000
00F000
00F000
00F000
00FFF0
00FFF0
00FFF0
00FFF0
00F000
00F000
00F000
00F000
ENDCHAR
STARTCHAR U+2553
ENCODING 9555
SWIDTH 500 0
DWIDTH 20 0
BBX 20 20 0 0
BITMAP
000000
000000
000000
000000
000000
000000
000000
000000
0FFFF0
0FFFF0
0FFFF0
0FFFF0
0F0F00
0F0F00
0F0F00
0F0F00
0F0F00
0F0F00
0F0F00
0F0F00
ENDCHAR
STARTCHAR U+256B
ENCODING 9579
SWIDTH 500 0
DWIDTH 20 0
BBX 20 20 0 0
BITMAP
0F0F00
0F0F00
0F0F00
0F0F00
0F0F00
0F0F00
0F0F00
0F0F00
FF0FF0
FF0FF0
FF0FF0
FF0FF0
0F0F00
0F0F00
0F0F00
0F0F00
0F0F00
0F0F00
0F0F00
0F0F00
ENDCHAR
STARTCHAR U+256A
ENCODING 9578
SWIDTH 500 0
DWIDTH 20 0
BBX 20 20 0 0
BITMAP
00F000
00F000
00F000
00F000
FFFFF0
FFFFF0
FFFFF0
FFFFF0
000000
000000
000000
000000
FFFFF0
FFFFF0
FFFFF0
FFFFF0
00F000
00F000
00F000
00F000
ENDCHAR
STARTCHAR U+2518
ENCODING 9496
SWIDTH 500 0
DWIDTH 20 0
BBX 20 20 0 0
BITMAP
00F000
00F000
00F000
00F000
00F000
00F000
00F000
00F000
FFF000
FFF000
FFF000
FFF000
000000
000000
000000
000000
000000
000000
000000
000000
ENDCHAR
STARTCHAR U+250C
ENCODING 9484
SWIDTH 500 0
DWIDTH 20 0
BBX 20 20 0 0
BITMAP
000000
000000
000000
000000
000000
000000
000000
000000
00FFF0
00FFF0
00FFF0
00FFF0
00F000
00F000
00F000
00F000
00F000
00F000
00F000
00F000
ENDCHAR
STARTCHAR U+2588
ENCODING 9608
SWIDTH 500 0
DWIDTH 20 0
BBX 20 20 0 0
BITMAP
FFFFF0
FFFFF0
FFFFF0
FFFFF0
FFFFF0
FFFFF0
FFFFF0
FFFFF0
FFFFF0
FFFFF0
FFFFF0
FFFFF0
FFFFF0
FFFFF0
FFFFF0
FFFFF0
FFFFF0
FFFFF0
FFFFF0
FFFFF0
ENDCHAR
STARTCHAR U+2584
ENCODING 9604
SWIDTH 500 0
DWIDTH 20 0
BBX 20 20 0 0
BITMAP
000000
000000
000000
000000
000000
000000
000000
000000
000000
000000
FFFFF0
FFFFF0
FFFFF0
FFFFF0
FFFFF0
FFFFF0
FFFFF0
FFFFF0
FFFFF0
FFFFF0
ENDCHAR
STARTCHAR U+258C
ENCODING 9612
SWIDTH 500 0
DWIDTH 20 0
BBX 20 20 0 0
BITMAP
FFC000
FFC000
FFC000
FFC000
FFC000
FFC000
FFC000
FFC000
FFC000
FFC000
FFC000
FFC000
FFC000
FFC000
FFC000
FFC000
FFC000
FFC000
FFC000
FFC000
ENDCHAR
STARTCHAR U+2590
ENCODING 9616
SWIDTH 500 0
DWIDTH 20 0
BBX 20 20 0 0
BITMAP
003FF0
003FF0
003FF0
003FF0
003FF0
003FF0
003FF0
003FF0
003FF0
003FF0
003FF0
003FF0
003FF0
003FF0
003FF0
003FF0
003FF0
003FF0
003FF0
003FF0
ENDCHAR
STARTCHAR U+2580
ENCODING 9600
SWIDTH 500 0
DWIDTH 20 0
BBX 20 20 0 0
BITMAP
FFFFF0
FFFFF0
FFFFF0
FFFFF0
FFFFF0
FFFFF0
FFFFF0
FFFFF0
FFFFF0
FFFFF0
000000
000000
000000
000000
000000
000000
000000
000000
000000
000000
ENDCHAR
STARTCHAR U+03B1
ENCODING 945
SWIDTH 500 0
DWIDTH 20 0
BBX 20 20 0 0
BITMAP
000000
000000
000000
000000
0FCF00
1FEF00
3CFF00
3CFF00
3C3C00
3C3C00
3CFF00
3CFF00
1FEF00
0FCF00
000000
000000
000000
000000
000000
000000
ENDCHAR
STARTCHAR U+00DF
ENCODING 223
SWIDTH 500 0
DWIDTH 20 0
BBX 20 20 0 0
BITMAP
000000
000000
03FC00
07FE00
0F0F00
0F0F00
0F3C00
0F3C00
0F0F00
0F0F00
0F0F00
0F0F00
0FFE00
0FFC00
0F0000
0F0000
078000
03C000
000000
000000
ENDCHAR
STARTCHAR U+0393
ENCODING 915
SWIDTH 500 0
DWIDTH 20 0
BBX 20 20 0 0
BITMAP
000000
000000
0FFF00
0FFF00
0F0F00
0F0F00
0F0F00
0F0F00
0F0000
0F0000
0F0000
0F0000
0F0000
0F0000
0F0000
0F0000
000000
000000
000000
000000
ENDCHAR
STARTCHAR U+03C0
ENCODING 960
SWIDTH 500 0
DWIDTH 20 0
BBX 20 20 0 0
BITMAP
000000
000000
1FFF80
1FFF80
079E00
079E00
079E00
079E00
079E00
079E00
079E00
079E00
079E00
079E00
078F00
078780
000000
000000
000000
000000
ENDCHAR
STARTCHAR U+03A3
ENCODING 931
SWIDTH 500 0
DWIDTH 20 0
BBX 20 20 0 0
BITMAP
000000
000000
0FFF00
0FFF00
0F0700
0F0300
078100
03C000
01E000
01E000
03C000
078100
0F0300
0E0700
0FFF00
0FFF00
000000
000000
000000
000000
ENDCHAR
STARTCHAR U+03C3
ENCODING 963
SWIDTH 500 0
DWIDTH 20 0
BBX 20 20 0 0
BITMAP
000000
000000
000000
000000
000000
000000
03FFC0
07FFC0
0F0C00
0F0E00
0F0F00
0F0F00
0F0F00
0F0F00
07FE00
03FC00
000000
000000
000000
000000
ENDCHAR
STARTCHAR U+00B5
ENCODING 181
SWIDTH 500 0
DWIDTH 20 0
BBX 20 20 0 0
BITMAP
000000
000000
000000
000000
000000
000000
0F0F00
0F0F00
0F0F00
0F0F00
0F0F00
0F0F00
0F0F00
0F0F00
0FFFC0
0FF3C0
0F0000
0F0000
1E0000
380000
ENDCHAR
STARTCHAR U+03C4
ENCODING 964
SWIDTH 500 0
DWIDTH 20 0
BBX 20 20 0 0
BITMAP
000000
000000
000000
000000
0FC780
1FCE00
3CFC00
38F800
00F000
00F000
00F000
00F000
00F000
00F000
007C00
003F00
000000
000000
000000
000000
ENDCHAR
STARTCHAR U+03A6
ENCODING 934
SWIDTH 500 0
DWIDTH 20 0
BBX 20 20 0 0
BITMAP
000000
000000
0FFF00
0FFF00
00F000
00F000
03FC00
070E00
070E00
070E00
070E00
03FC00
00F000
00F000
0FFF00
0FFF00
000000
000000
000000
000000
ENDCHAR
STARTCHAR U+0398
ENCODING 920
SWIDTH 500 0
DWIDTH 20 0
BBX 20 20 0 0
BITMAP
000000
000000
03FC00
07FE00
0F0F00
0F0F00
0F0F00
0F0F00
0FFF00
0FFF00
0F0F00
0F0F00
0F0F00
0F0F00
07FE00
03FC00
000000
000000
000000
000000
ENDCHAR
STARTCHAR U+03A9
ENCODING 937
SWIDTH 500 0
DWIDTH 20 0
BBX 20 20 0 0
BITMAP
000000
000000
07FE00
0FFF00
1E0780
1E0780
1E0780
1E0780
1E0780
1E0780
0F0F00
079E00
079E00
079E00
1F9F80
1F9F80
000000
000000
000000
000000
ENDCHAR
STARTCHAR U+03B4
ENCODING 948
SWIDTH 500 0
DWIDTH 20 0
BBX 20 20 0 0
BITMAP
000000
000000
00FF00
01FF00
03C000
01E000
03FC00
07FE00
0F0F00
0F0F00
0F0F00
0F0F00
0F0F00
0F0F00
07FE00
03FC00
000000
000000
000000
000000
ENDCHAR
STARTCHAR U+221E
ENCODING 8734
SWIDTH 500 0
DWIDTH 20 0
BBX 20 20 0 0
BITMAP
000000
000000
000000
000000
000000
0FCF00
1FDF80
3CF3C0
3CF3C0
3CF3C0
3CF3C0
1FBF80
0F3F00
000000
000000
000000
000000
000000
000000
000000
ENDCHAR
STARTCHAR U+03C6
ENCODING 966
SWIDTH 500 0
DWIDTH 20 0
BBX 20 20 0 0
BITMAP
000000
000000
000180
000380
01FF00
03FE00
061E00
063E00
067600
06E600
07C600
078600
07FC00
0FF800
1C0000
180000
000000
000000
000000
000000
ENDCHAR
STARTCHAR U+03B5
ENCODING 949
SWIDTH 500 0
DWIDTH 20 0
BBX 20 20 0 0
BITMAP
000000
000000
00FF00
01FF00
03C000
078000
0F0000
0F0000
0FFF00
0FFF00
0F0000
0F0000
078000
03C000
01FF00
00FF00
000000
000000
000000
000000
ENDCHAR
STARTCHAR U+2229
ENCODING 8745
SWIDTH 500 0
DWIDTH 20 0
BBX 20 20 0 0
BITMAP
000000
000000
03FC00
07FE00
0F0F00
0F0F00
0F0F00
0F0F00
0F0F00
0F0F00
0F0F00
0F0F00
0F0F00
0F0F00
0F0F00
0F0F00
000000
000000
000000
000000
ENDCHAR
STARTCHAR U+2261
ENCODING 8801
SWIDTH 500 0
DWIDTH 20 0
BBX 20 20 0 0
BITMAP
000000
000000
000000
000000
0FFF00
0FFF00
000000
000000
000000
0FFF00
0FFF00
000000
000000
000000
0FFF00
0FFF00
000000
000000
000000
000000
ENDCHAR
STARTCHAR U+00B1
ENCODING 177
SWIDTH 500 0
DWIDTH 20 0
BBX 20 20 0 0
BITMAP
000000
000000
000000
00F000
00F000
00F000
00F000
0FFF00
0FFF00
00F000
00F000
00F000
00F000
000000
000000
0FFF00
0FFF00
000000
000000
000000
ENDCHAR
STARTCHAR U+2265
ENCODING 8805
SWIDTH 500 0
DWIDTH 20 0
BBX 20 20 0 0
BITMAP
000000
000000
000000
03C000
01E000
00F000
007800
003C00
003C00
007800
00F000
01E000
03C000
000000
000000
0FFF00
0FFF00
000000
000000
000000
ENDCHAR
STARTCHAR U+2264
ENCODING 8804
SWIDTH 500 0
DWIDTH 20 0
BBX 20 20 0 0
BITMAP
000000
000000
000000
003C00
007800
00F000
01E000
03C000
03C000
01E000
00F000
007800
003C00
000000
000000
0FFF00
0FFF00
000000
000000
000000
ENDCHAR
STARTCHAR U+2320
ENCODING 8992
SWIDTH 500 0
DWIDTH 20 0
BBX 20 20 0 0
BITMAP
000000
000000
00FC00
01FE00
03CF00
03CF00
03CF00
03CF00
03C000
03C000
03C000
03C000
03C000
03C000
03C000
03C000
03C000
03C000
03C000
03C000
ENDCHAR
STARTCHAR U+2321
ENCODING 8993
SWIDTH 500 0
DWIDTH 20 0
BBX 20 20 0 0
BITMAP
003C00
003C00
003C00
003C00
003C00
003C00
003C00
003C00
003C00
003C00
003C00
003C00
0F3C00
0F3C00
0F3C00
0F3C00
07F800
03F000
000000
000000
ENDCHAR
STARTCHAR U+00F7
ENCODING 247
SWIDTH 500 0
DWIDTH 20 0
BBX 20 20 0 0
BITMAP
000000
000000
000000
00F000
00F000
00F000
00F000
000000
000000
0FFF00
0FFF00
000000
000000
00F000
00F000
00F000
00F000
000000
000000
000000
ENDCHAR
STARTCHAR U+2248
ENCODING 8776
SWIDTH 500 0
DWIDTH 20 0
BBX 20 20 0 0
BITMAP
000000
000000
000000
000000
0FC1C0
1FE3C0
3FFF80
387F00
303E00
000000
000000
0F81C0
1FC3C0
3FFF80
38FF00
307E00
000000
000000
000000
000000
ENDCHAR
STARTCHAR U+00B0
ENCODING 176
SWIDTH 500 0
DWIDTH 20 0
BBX 20 20 0 0
BITMAP
000000
000000
01F000
03F800
071C00
060C00
060C00
071C00
03F800
01F000
000000
000000
000000
000000
000000
000000
000000
000000
000000
000000
ENDCHAR
STARTCHAR U+2219
ENCODING 8729
SWIDTH 500 0
DWIDTH 20 0
BBX 20 20 0 0
BITMAP
000000
000000
000000
000000
000000
000000
000000
000000
00F000
00F000
00F000
00F000
000000
000000
000000
000000
000000
000000
000000
000000
ENDCHAR
STARTCHAR U+00B7
ENCODING 183
SWIDTH 500 0
DWIDTH 20 0
BBX 20 20 0 0
BITMAP
000000
000000
000000
000000
000000
000000
000000
000000
000000
000000
00F000
00F000
000000
000000
000000
000000
000000
000000
000000
000000
ENDCHAR
STARTCHAR U+221A
ENCODING 8730
SWIDTH 500 0
DWIDTH 20 0
BBX 20 20 0 0
BITMAP
000000
000000
001F80
001F80
001800
001800
001800
001800
3C1800
1E1800
0F1800
079800
03F800
01F800
00F800
007800
000000
000000
000000
000000
ENDCHAR
STARTCHAR U+207F
ENCODING 8319
SWIDTH 500 0
DWIDTH 20 0
BBX 20 20 0 0
BITMAP
000000
000000
0F3C00
0FFE00
03CF00
03CF00
03CF00
03CF00
03CF00
03CF00
000000
000000
000000
000000
000000
000000
000000
000000
000000
000000
ENDCHAR
STARTCHAR U+00B2
ENCODING 178
SWIDTH 500 0
DWIDTH 20 0
BBX 20 20 0 0
BITMAP
000000
000000
03F000
03F800
003C00
007800
00F000
01E000
03FC00
03FC00
000000
000000
000000
000000
000000
000000
000000
000000
000000
000000
ENDCHAR
STARTCHAR U+25A0
ENCODING 9632
SWIDTH 500 0
DWIDTH 20 0
BBX 20 20 0 0
BITMAP
000000
000000
000000
000000
0FFF00
0FFF00
0FFF00
0FFF00
0FFF00
0FFF00
0FFF00
0FFF00
0FFF00
0FFF00
0FFF00
0FFF00
000000
000000
000000
000000
ENDCHAR
STARTCHAR U+00FF
ENCODING 255
SWIDTH 500 0
DWIDTH 20 0
BBX 20 20 0 0
BITMAP
000000
000000
000000
000000
0FFF00
0FFF00
0C0300
0C0300
0C0300
0C0300
0C0300
0C0300
0C0300
0C0300
0FFF00
0FFF00
000000
000000
000000
000000
ENDCHAR
ENDFONT
